<svg xmlns="http://www.w3.org/2000/svg" xmlns:xlink="http://www.w3.org/1999/xlink" width="2000" zoomAndPan="magnify" viewBox="0 0 1500 1499.999933" height="2000" preserveAspectRatio="xMidYMid meet" version="1.0"><defs><clipPath id="4473e57538"><path d="M 0 0 L 1500 0 L 1500 1500 L 0 1500 Z M 0 0 " clip-rule="nonzero"></path></clipPath><clipPath id="d532103675"><path d="M -106.953125 204.882812 L 1434.601562 0.0351562 L 1606.757812 1295.574219 L 65.203125 1500.421875 Z M -106.953125 204.882812 " clip-rule="nonzero"></path></clipPath><clipPath id="ce6872a7b1"><path d="M 559.410156 713 L 696 713 L 696 776 L 559.410156 776 Z M 559.410156 713 " clip-rule="nonzero"></path></clipPath><clipPath id="81baa6491f"><path d="M 893 724 L 1029.410156 724 L 1029.410156 786.914062 L 893 786.914062 Z M 893 724 " clip-rule="nonzero"></path></clipPath><clipPath id="b1521573d1"><path d="M 768 514.996094 L 831 514.996094 L 831 649 L 768 649 Z M 768 514.996094 " clip-rule="nonzero"></path></clipPath><clipPath id="7a4047bfbd"><path d="M 758 851 L 821 851 L 821 984.949219 L 758 984.949219 Z M 758 851 " clip-rule="nonzero"></path></clipPath><clipPath id="f91a4e07c7"><rect x="0" width="1500" y="0" height="1500"></rect></clipPath></defs><g transform="matrix(1, 0, 0, 1, 0, 0.000000000000112861)"><g clip-path="url(#f91a4e07c7)"><g clip-path="url(#4473e57538)"><g clip-path="url(#d532103675)"><g transform="matrix(1.903152, -0.252898, 0.253171, 1.905205, -106.953209, 204.880978)"><image x="0" y="0" width="810" height="680" preserveAspectRatio="xMidYMid meet"></image></g></g></g><path fill="#0b439c" d="M 881.152344 703.742188 L 881.070312 703.664062 L 860.1875 625.949219 L 1025.546875 518.777344 L 888.332031 730.667969 L 881.152344 703.742188 " fill-opacity="1" fill-rule="nonzero"></path><path fill="#0b439c" d="M 601 556.492188 L 741.136719 637.125 L 773.980469 656.277344 L 673.9375 683.277344 L 601 556.492188 " fill-opacity="1" fill-rule="nonzero"></path><path fill="#0b439c" d="M 677.285156 805.023438 L 700.472656 769.074219 L 728.714844 873.9375 L 563.210938 981.105469 L 677.285156 805.023438 " fill-opacity="1" fill-rule="nonzero"></path><path fill="#0b439c" d="M 914.96875 816.597656 L 987.902344 943.398438 L 847.390625 862.53125 L 814.769531 843.550781 L 914.96875 816.597656 " fill-opacity="1" fill-rule="nonzero"></path><g clip-path="url(#ce6872a7b1)"><path fill="#0b439c" d="M 666.617188 721.03125 L 695.269531 713.695312 L 655.125 775.734375 L 559.410156 749.972656 L 666.617188 721.03125 " fill-opacity="1" fill-rule="nonzero"></path></g><g clip-path="url(#81baa6491f)"><path fill="#0b439c" d="M 933.78125 724.144531 L 1029.414062 749.964844 L 893.34375 786.5625 Z M 933.78125 724.144531 " fill-opacity="1" fill-rule="nonzero"></path></g><g clip-path="url(#b1521573d1)"><path fill="#0b439c" d="M 794.421875 514.992188 L 830.417969 648.703125 L 768.136719 612.769531 Z M 794.421875 514.992188 " fill-opacity="1" fill-rule="nonzero"></path></g><g clip-path="url(#7a4047bfbd)"><path fill="#0b439c" d="M 758.433594 851.246094 L 820.765625 887.117188 L 794.421875 984.949219 Z M 758.433594 851.246094 " fill-opacity="1" fill-rule="nonzero"></path></g></g></g></svg>