<svg xmlns="http://www.w3.org/2000/svg" xmlns:xlink="http://www.w3.org/1999/xlink" width="2000" zoomAndPan="magnify" viewBox="0 0 1500 1499.999933" height="2000" preserveAspectRatio="xMidYMid meet" version="1.0"><defs><g></g><clipPath id="c8f4d126c7"><path d="M 0 0 L 1500 0 L 1500 1368 L 0 1368 Z M 0 0 " clip-rule="nonzero"></path></clipPath><clipPath id="ee27945b46"><path d="M -31.503906 186.84375 L 1374.324219 0.03125 L 1531.324219 1181.503906 L 125.496094 1368.316406 Z M -31.503906 186.84375 " clip-rule="nonzero"></path></clipPath><clipPath id="e9ff452bae"><path d="M 576.191406 650 L 701 650 L 701 708 L 576.191406 708 Z M 576.191406 650 " clip-rule="nonzero"></path></clipPath><clipPath id="c1b29a1bd5"><path d="M 880 660 L 1004.808594 660 L 1004.808594 717.628906 L 880 717.628906 Z M 880 660 " clip-rule="nonzero"></path></clipPath><clipPath id="cab35e9ad3"><path d="M 766 469.65625 L 824 469.65625 L 824 592 L 766 592 Z M 766 469.65625 " clip-rule="nonzero"></path></clipPath><clipPath id="8a4e274a6a"><path d="M 757.050781 776 L 815 776 L 815 898.230469 L 757.050781 898.230469 Z M 757.050781 776 " clip-rule="nonzero"></path></clipPath><clipPath id="3e361b74f6"><rect x="0" width="1500" y="0" height="1369"></rect></clipPath><clipPath id="3c675f7619"><rect x="0" width="1118" y="0" height="242"></rect></clipPath></defs><g transform="matrix(1, 0, 0, 1, 0, 0.000000000000112861)"><g clip-path="url(#3e361b74f6)"><g clip-path="url(#c8f4d126c7)"><g clip-path="url(#ee27945b46)"><g transform="matrix(1.735589, -0.230632, 0.230881, 1.737461, -31.502952, 186.842316)"><image x="0" y="0" width="810" height="680" preserveAspectRatio="xMidYMid meet"></image></g></g></g><path fill="#0b439c" d="M 869.605469 641.78125 L 869.53125 641.710938 L 850.488281 570.839844 L 1001.285156 473.101562 L 876.152344 666.335938 L 869.605469 641.78125 " fill-opacity="1" fill-rule="nonzero"></path><path fill="#0b439c" d="M 614.117188 507.496094 L 741.917969 581.027344 L 771.871094 598.496094 L 680.636719 623.121094 L 614.117188 507.496094 " fill-opacity="1" fill-rule="nonzero"></path><path fill="#0b439c" d="M 683.6875 734.144531 L 704.832031 701.363281 L 730.585938 796.992188 L 579.65625 894.722656 L 683.6875 734.144531 " fill-opacity="1" fill-rule="nonzero"></path><path fill="#0b439c" d="M 900.445312 744.699219 L 966.957031 860.335938 L 838.8125 786.589844 L 809.066406 769.28125 L 900.445312 744.699219 " fill-opacity="1" fill-rule="nonzero"></path><g clip-path="url(#e9ff452bae)"><path fill="#0b439c" d="M 673.957031 657.546875 L 700.089844 650.859375 L 663.480469 707.4375 L 576.191406 683.941406 L 673.957031 657.546875 " fill-opacity="1" fill-rule="nonzero"></path></g><g clip-path="url(#c1b29a1bd5)"><path fill="#0b439c" d="M 917.597656 660.386719 L 1004.8125 683.9375 L 880.722656 717.308594 Z M 917.597656 660.386719 " fill-opacity="1" fill-rule="nonzero"></path></g><g clip-path="url(#cab35e9ad3)"><path fill="#0b439c" d="M 790.511719 469.652344 L 823.339844 591.589844 L 766.539062 558.820312 Z M 790.511719 469.652344 " fill-opacity="1" fill-rule="nonzero"></path></g><g clip-path="url(#8a4e274a6a)"><path fill="#0b439c" d="M 757.691406 776.300781 L 814.535156 809.011719 L 790.511719 898.230469 Z M 757.691406 776.300781 " fill-opacity="1" fill-rule="nonzero"></path></g></g></g><g transform="matrix(1, 0, 0, 1, 205, 1246)"><g clip-path="url(#3c675f7619)"><g fill="#051535" fill-opacity="1"><g transform="translate(1.736117, 194.028378)"><g><path d="M 80.4375 -155.125 C 99.945312 -155.125 115.976562 -151.171875 128.53125 -143.265625 C 141.09375 -135.367188 147.519531 -123.660156 147.8125 -108.140625 L 147.8125 -105.484375 L 101.9375 -105.484375 L 101.9375 -106.375 C 101.9375 -110.800781 100.3125 -114.492188 97.0625 -117.453125 C 93.8125 -120.410156 88.863281 -121.890625 82.21875 -121.890625 C 75.71875 -121.890625 70.726562 -120.925781 67.25 -119 C 63.78125 -117.082031 62.046875 -114.71875 62.046875 -111.90625 C 62.046875 -107.914062 64.410156 -104.960938 69.140625 -103.046875 C 73.867188 -101.128906 81.476562 -99.132812 91.96875 -97.0625 C 104.226562 -94.550781 114.3125 -91.925781 122.21875 -89.1875 C 130.125 -86.457031 137.03125 -81.988281 142.9375 -75.78125 C 148.84375 -69.582031 151.875 -61.164062 152.03125 -50.53125 C 152.03125 -32.5 145.929688 -19.125 133.734375 -10.40625 C 121.546875 -1.695312 105.257812 2.65625 84.875 2.65625 C 61.09375 2.65625 42.585938 -1.332031 29.359375 -9.3125 C 16.140625 -17.289062 9.53125 -31.398438 9.53125 -51.640625 L 55.84375 -51.640625 C 55.84375 -43.953125 57.835938 -38.816406 61.828125 -36.234375 C 65.816406 -33.648438 72.019531 -32.359375 80.4375 -32.359375 C 86.644531 -32.359375 91.78125 -33.019531 95.84375 -34.34375 C 99.90625 -35.675781 101.9375 -38.410156 101.9375 -42.546875 C 101.9375 -46.242188 99.679688 -49.015625 95.171875 -50.859375 C 90.671875 -52.703125 83.320312 -54.660156 73.125 -56.734375 C 60.71875 -59.390625 50.453125 -62.15625 42.328125 -65.03125 C 34.203125 -67.914062 27.109375 -72.679688 21.046875 -79.328125 C 14.992188 -85.984375 11.96875 -95 11.96875 -106.375 C 11.96875 -123.070312 18.429688 -135.367188 31.359375 -143.265625 C 44.285156 -151.171875 60.644531 -155.125 80.4375 -155.125 Z M 80.4375 -155.125 "></path></g></g></g><g fill="#051535" fill-opacity="1"><g transform="translate(189.428618, 194.028378)"><g><path d="M 104.15625 -113.46875 L 104.15625 0 L 55.1875 0 L 55.1875 -113.46875 L 5.09375 -113.46875 L 5.09375 -152.46875 L 154.015625 -152.46875 L 154.015625 -113.46875 Z M 104.15625 -113.46875 "></path></g></g></g><g fill="#051535" fill-opacity="1"><g transform="translate(377.121118, 194.028378)"><g><path d="M 16.40625 -152.46875 L 148.25 -152.46875 L 148.25 -115.90625 L 65.375 -115.90625 L 65.375 -94.84375 L 136.296875 -94.84375 L 136.296875 -59.828125 L 65.375 -59.828125 L 65.375 -36.5625 L 149.8125 -36.5625 L 149.8125 0 L 16.40625 0 Z M 16.40625 -152.46875 "></path></g></g></g><g fill="#051535" fill-opacity="1"><g transform="translate(564.813591, 194.028378)"><g><path d="M 16.40625 -152.46875 L 65.375 -152.46875 L 65.375 -39 L 143.609375 -39 L 143.609375 0 L 16.40625 0 Z M 16.40625 -152.46875 "></path></g></g></g><g fill="#051535" fill-opacity="1"><g transform="translate(740.318547, 194.028378)"><g><path d="M 16.40625 -152.46875 L 65.375 -152.46875 L 65.375 -39 L 143.609375 -39 L 143.609375 0 L 16.40625 0 Z M 16.40625 -152.46875 "></path></g></g></g><g fill="#051535" fill-opacity="1"><g transform="translate(915.823504, 194.028378)"><g><path d="M 161.109375 -105.703125 C 161.109375 -96.398438 158.597656 -87.976562 153.578125 -80.4375 C 148.554688 -72.90625 141.242188 -67.367188 131.640625 -63.828125 L 165.546875 0 L 110.578125 0 L 83.546875 -55.625 L 65.375 -55.625 L 65.375 0 L 16.40625 0 L 16.40625 -152.46875 L 109.703125 -152.46875 C 120.628906 -152.46875 129.96875 -150.359375 137.71875 -146.140625 C 145.476562 -141.929688 151.316406 -136.242188 155.234375 -129.078125 C 159.148438 -121.921875 161.109375 -114.128906 161.109375 -105.703125 Z M 111.25 -103.71875 C 111.25 -107.707031 109.914062 -111.03125 107.25 -113.6875 C 104.59375 -116.34375 101.347656 -117.671875 97.515625 -117.671875 L 65.375 -117.671875 L 65.375 -89.53125 L 97.515625 -89.53125 C 101.347656 -89.53125 104.59375 -90.894531 107.25 -93.625 C 109.914062 -96.363281 111.25 -99.726562 111.25 -103.71875 Z M 111.25 -103.71875 "></path></g></g></g></g></g></svg>