<svg xmlns="http://www.w3.org/2000/svg" xmlns:xlink="http://www.w3.org/1999/xlink" width="2000" zoomAndPan="magnify" viewBox="0 0 1500 1499.999933" height="2000" preserveAspectRatio="xMidYMid meet" version="1.0"><defs><g></g><clipPath id="c0ca34109e"><path d="M 0 0.121094 L 565 0.121094 L 565 546 L 0 546 Z M 0 0.121094 " clip-rule="nonzero"></path></clipPath><clipPath id="dd045b0df4"><path d="M -58.242188 74.769531 L 502.332031 0.28125 L 564.9375 471.394531 L 4.363281 545.886719 Z M -58.242188 74.769531 " clip-rule="nonzero"></path></clipPath><clipPath id="7fa25ec8ef"><path d="M 184.078125 259 L 234 259 L 234 283 L 184.078125 283 Z M 184.078125 259 " clip-rule="nonzero"></path></clipPath><clipPath id="56ec473d4c"><path d="M 305.183594 263.289062 L 354.988281 263.289062 L 354.988281 286.421875 L 305.183594 286.421875 Z M 305.183594 263.289062 " clip-rule="nonzero"></path></clipPath><clipPath id="f8c2d194dd"><path d="M 259 187.542969 L 283 187.542969 L 283 237 L 259 237 Z M 259 187.542969 " clip-rule="nonzero"></path></clipPath><clipPath id="7188f80b06"><path d="M 256.195312 309.554688 L 279.328125 309.554688 L 279.328125 358.4375 L 256.195312 358.4375 Z M 256.195312 309.554688 " clip-rule="nonzero"></path></clipPath><clipPath id="03bed46636"><rect x="0" width="566" y="0" height="547"></rect></clipPath><clipPath id="59da7250ed"><rect x="0" width="996" y="0" height="216"></rect></clipPath></defs><g transform="matrix(1, 0, 0, 1, 0, 477)"><g clip-path="url(#03bed46636)"><g clip-path="url(#c0ca34109e)"><g clip-path="url(#dd045b0df4)"><g transform="matrix(0.692068, -0.0919647, 0.0920639, 0.692814, -58.241391, 74.771236)"><image x="0" y="0" width="810" height="680" preserveAspectRatio="xMidYMid meet"></image></g></g></g><path fill="#0b439c" d="M 301.078125 256.179688 L 301.046875 256.152344 L 293.453125 227.890625 L 353.585938 188.917969 L 303.6875 265.96875 L 301.078125 256.179688 " fill-opacity="1" fill-rule="nonzero"></path><path fill="#0b439c" d="M 199.199219 202.632812 L 250.160156 231.953125 L 262.105469 238.917969 L 225.722656 248.738281 L 199.199219 202.632812 " fill-opacity="1" fill-rule="nonzero"></path><path fill="#0b439c" d="M 226.941406 293.007812 L 235.375 279.9375 L 245.644531 318.070312 L 185.457031 357.039062 L 226.941406 293.007812 " fill-opacity="1" fill-rule="nonzero"></path><path fill="#0b439c" d="M 313.375 297.21875 L 339.894531 343.328125 L 288.796875 313.921875 L 276.9375 307.019531 L 313.375 297.21875 " fill-opacity="1" fill-rule="nonzero"></path><g clip-path="url(#7fa25ec8ef)"><path fill="#0b439c" d="M 223.0625 262.464844 L 233.480469 259.796875 L 218.882812 282.359375 L 184.078125 272.988281 L 223.0625 262.464844 " fill-opacity="1" fill-rule="nonzero"></path></g><g clip-path="url(#56ec473d4c)"><path fill="#0b439c" d="M 320.214844 263.597656 L 354.992188 272.988281 L 305.511719 286.296875 Z M 320.214844 263.597656 " fill-opacity="1" fill-rule="nonzero"></path></g><g clip-path="url(#f8c2d194dd)"><path fill="#0b439c" d="M 269.539062 187.542969 L 282.628906 236.164062 L 259.976562 223.097656 Z M 269.539062 187.542969 " fill-opacity="1" fill-rule="nonzero"></path></g><g clip-path="url(#7188f80b06)"><path fill="#0b439c" d="M 256.449219 309.816406 L 279.117188 322.863281 L 269.539062 358.4375 Z M 256.449219 309.816406 " fill-opacity="1" fill-rule="nonzero"></path></g></g></g><g transform="matrix(1, 0, 0, 1, 504, 641)"><g clip-path="url(#59da7250ed)"><g fill="#051535" fill-opacity="1"><g transform="translate(1.727998, 173.393973)"><g><path d="M 71.84375 -138.5625 C 89.269531 -138.5625 103.585938 -135.03125 114.796875 -127.96875 C 126.015625 -120.90625 131.757812 -110.445312 132.03125 -96.59375 L 132.03125 -94.21875 L 91.046875 -94.21875 L 91.046875 -95.015625 C 91.046875 -98.972656 89.59375 -102.269531 86.6875 -104.90625 C 83.789062 -107.539062 79.375 -108.859375 73.4375 -108.859375 C 67.625 -108.859375 63.164062 -108 60.0625 -106.28125 C 56.96875 -104.570312 55.421875 -102.460938 55.421875 -99.953125 C 55.421875 -96.390625 57.53125 -93.75 61.75 -92.03125 C 65.976562 -90.320312 72.773438 -88.546875 82.140625 -86.703125 C 93.097656 -84.453125 102.101562 -82.109375 109.15625 -79.671875 C 116.21875 -77.234375 122.390625 -73.238281 127.671875 -67.6875 C 132.953125 -62.144531 135.65625 -54.625 135.78125 -45.125 C 135.78125 -29.03125 130.335938 -17.085938 119.453125 -9.296875 C 108.566406 -1.515625 94.019531 2.375 75.8125 2.375 C 54.5625 2.375 38.03125 -1.1875 26.21875 -8.3125 C 14.414062 -15.4375 8.515625 -28.039062 8.515625 -46.125 L 49.875 -46.125 C 49.875 -39.257812 51.65625 -34.671875 55.21875 -32.359375 C 58.78125 -30.054688 64.320312 -28.90625 71.84375 -28.90625 C 77.394531 -28.90625 81.984375 -29.5 85.609375 -30.6875 C 89.234375 -31.875 91.046875 -34.3125 91.046875 -38 C 91.046875 -41.300781 89.035156 -43.773438 85.015625 -45.421875 C 80.992188 -47.078125 74.425781 -48.828125 65.3125 -50.671875 C 54.226562 -53.046875 45.054688 -55.519531 37.796875 -58.09375 C 30.546875 -60.664062 24.210938 -64.921875 18.796875 -70.859375 C 13.390625 -76.796875 10.6875 -84.847656 10.6875 -95.015625 C 10.6875 -109.921875 16.457031 -120.90625 28 -127.96875 C 39.550781 -135.03125 54.164062 -138.5625 71.84375 -138.5625 Z M 71.84375 -138.5625 "></path></g></g></g><g fill="#051535" fill-opacity="1"><g transform="translate(169.370242, 173.393973)"><g><path d="M 93.03125 -101.34375 L 93.03125 0 L 49.28125 0 L 49.28125 -101.34375 L 4.546875 -101.34375 L 4.546875 -136.1875 L 137.5625 -136.1875 L 137.5625 -101.34375 Z M 93.03125 -101.34375 "></path></g></g></g><g fill="#051535" fill-opacity="1"><g transform="translate(337.012487, 173.393973)"><g><path d="M 14.640625 -136.1875 L 132.421875 -136.1875 L 132.421875 -103.515625 L 58.390625 -103.515625 L 58.390625 -84.71875 L 121.734375 -84.71875 L 121.734375 -53.4375 L 58.390625 -53.4375 L 58.390625 -32.65625 L 133.8125 -32.65625 L 133.8125 0 L 14.640625 0 Z M 14.640625 -136.1875 "></path></g></g></g><g fill="#051535" fill-opacity="1"><g transform="translate(504.654708, 173.393973)"><g><path d="M 14.640625 -136.1875 L 58.390625 -136.1875 L 58.390625 -34.84375 L 128.265625 -34.84375 L 128.265625 0 L 14.640625 0 Z M 14.640625 -136.1875 "></path></g></g></g><g fill="#051535" fill-opacity="1"><g transform="translate(661.411343, 173.393973)"><g><path d="M 14.640625 -136.1875 L 58.390625 -136.1875 L 58.390625 -34.84375 L 128.265625 -34.84375 L 128.265625 0 L 14.640625 0 Z M 14.640625 -136.1875 "></path></g></g></g><g fill="#051535" fill-opacity="1"><g transform="translate(818.167978, 173.393973)"><g><path d="M 143.90625 -94.421875 C 143.90625 -86.109375 141.660156 -78.582031 137.171875 -71.84375 C 132.679688 -65.113281 126.148438 -60.164062 117.578125 -57 L 147.859375 0 L 98.765625 0 L 74.625 -49.6875 L 58.390625 -49.6875 L 58.390625 0 L 14.640625 0 L 14.640625 -136.1875 L 97.984375 -136.1875 C 107.742188 -136.1875 116.085938 -134.304688 123.015625 -130.546875 C 129.941406 -126.785156 135.15625 -121.703125 138.65625 -115.296875 C 142.15625 -108.898438 143.90625 -101.941406 143.90625 -94.421875 Z M 99.359375 -92.640625 C 99.359375 -96.203125 98.171875 -99.171875 95.796875 -101.546875 C 93.421875 -103.921875 90.519531 -105.109375 87.09375 -105.109375 L 58.390625 -105.109375 L 58.390625 -79.96875 L 87.09375 -79.96875 C 90.519531 -79.96875 93.421875 -81.1875 95.796875 -83.625 C 98.171875 -86.070312 99.359375 -89.078125 99.359375 -92.640625 Z M 99.359375 -92.640625 "></path></g></g></g></g></g></svg>